<svg width="135" height="84" viewBox="0 0 135 84" fill="none" xmlns="http://www.w3.org/2000/svg">
<g clip-path="url(#clip0_1_61)">
<path d="M42.6814 48.1551C43.4605 47.224 44.1326 46.3054 44.9562 45.5526C45.2735 45.2626 45.9352 45.3494 46.44 45.2645C46.4986 45.3965 46.5571 45.5285 46.6156 45.6605C45.7987 46.5037 44.9817 47.347 43.9375 48.4249C45.1343 48.4249 45.8925 48.4249 46.6507 48.4249C46.697 48.5668 46.7433 48.7087 46.7897 48.8505C46.4165 49.0986 46.037 49.3378 45.6713 49.5963C44.3138 50.5557 42.9384 51.4923 41.6246 52.5084C41.3515 52.7197 41.1783 53.2381 41.1878 53.6091C41.2671 56.7089 41.3999 59.8074 41.5223 63.0602C42.0595 63.0602 42.5084 63.0602 42.9572 63.0602C45.4353 63.0603 47.9137 63.0865 50.3911 63.0481C51.4267 63.032 52.358 63.3574 52.6197 64.3132C52.8246 65.0615 52.5417 65.9619 52.3964 66.7806C52.3125 67.2532 51.9944 67.6847 51.9135 68.1572C51.3151 71.6501 49.6177 74.465 46.6376 76.3811C45.5633 77.0718 44.7051 77.8011 44.2836 79.015C43.9928 79.8525 43.4229 80.292 42.4837 80.2928C41.5758 80.2936 41.0338 79.9346 40.6082 79.1174C40.4151 78.7467 39.7876 78.3924 39.3541 78.3887C33.7265 78.3404 28.0981 78.3376 22.4706 78.3924C22.0178 78.3968 21.3697 78.8058 21.162 79.2076C20.7506 80.0033 20.2118 80.2834 19.3689 80.2944C18.5052 80.3057 17.9055 80.0006 17.6124 79.1748C17.1424 77.8507 16.2205 77.0164 15.0232 76.2655C12.7126 74.8165 11.1941 72.6697 10.3649 70.0494C9.94025 68.7075 9.48316 67.3754 9.01213 66.049C8.58094 64.8349 9.32084 63.4208 10.6007 63.1069C10.9164 63.0295 11.2489 63.0203 11.6882 62.9655C11.6882 62.4319 11.6882 61.9368 11.6882 61.4417C11.6883 44.3476 11.6875 27.2536 11.689 10.1595C11.6894 5.96569 13.6859 3.96056 17.852 3.95986C21.422 3.95926 24.992 3.9552 28.562 3.96143C31.1021 3.96586 32.3161 5.1195 32.3439 7.6111C32.3668 9.65452 32.2256 9.50693 34.2707 9.50892C35.0688 9.5097 35.8668 9.50149 36.6647 9.51073C38.4479 9.53137 38.9821 10.2325 38.63 12.146C33.8313 12.146 29.0223 12.146 24.2285 12.146C23.8343 10.2249 24.359 9.53125 26.1711 9.51119C27.305 9.49863 28.4409 9.46939 29.5725 9.52137C30.4099 9.55984 30.7223 9.2218 30.6489 8.41634C30.6148 8.0414 30.6556 7.66026 30.6387 7.283C30.5937 6.28347 30.0974 5.72353 29.0626 5.72317C24.9466 5.72177 20.8302 5.69221 16.7148 5.73895C15.0037 5.75839 13.7233 6.98455 13.4555 8.68612C13.3907 9.09757 13.4003 9.52301 13.4002 9.94203C13.3977 27.1621 13.3981 44.3822 13.3981 61.6023C13.3981 62.0187 13.3981 62.435 13.3981 62.9556C15.7137 62.9556 17.9519 62.9556 20.3084 62.9556C20.3976 60.5988 20.4914 58.2653 20.5729 55.9314C20.6885 52.6206 19.7573 51.1641 16.6635 49.798C16.4339 49.6966 16.1439 49.6741 15.97 49.5172C15.6659 49.2428 15.4302 48.8925 15.1658 48.5739C15.5824 48.4792 15.9975 48.3206 16.4163 48.3098C16.7557 48.3011 17.0997 48.47 17.4417 48.5601C17.5232 48.449 17.6048 48.3379 17.6864 48.2268C17.132 47.6607 16.5541 47.1152 16.0331 46.5198C15.7721 46.2214 15.6149 45.8322 15.4107 45.484C15.8639 45.4729 16.5018 45.2649 16.7373 45.4859C17.6105 46.3054 18.4034 47.2265 19.1306 48.1823C20.6751 50.2123 22.023 52.4109 23.7213 54.2974C24.6876 55.3709 26.1956 55.9513 27.4386 56.7851C27.7329 56.9825 27.9427 57.3058 28.1914 57.5711C27.7898 57.7116 27.2682 58.0865 27.0069 57.9527C25.7122 57.2901 24.4767 56.5084 23.2418 55.7344C22.8689 55.5007 22.5648 55.1572 21.9039 54.5798C21.9039 57.5984 21.9039 60.2428 21.9039 62.9758C27.8299 62.9758 33.9406 62.9758 40.0266 62.9758C40.0266 60.257 40.0266 57.5572 40.0266 54.5996C38.8643 55.4977 37.9698 56.2843 36.9795 56.9222C36.2518 57.3909 35.4168 57.7212 34.5897 57.9901C34.3539 58.0667 33.9783 57.7132 33.6668 57.5569C33.8365 57.3117 33.9568 56.92 34.1834 56.8434C37.2284 55.8153 39.1619 53.5194 40.9015 51.0079C41.5217 50.1125 42.0595 49.1602 42.6814 48.1551ZM30.9613 67.6202C24.399 67.6202 17.8367 67.6202 11.2535 67.6202C11.7015 72.8432 16.2365 76.9854 21.3425 77.0139C27.7267 77.0495 34.1112 77.0244 40.4955 77.0212C42.9573 77.02 45.1032 76.1294 46.9399 74.548C49.001 72.7735 50.3266 70.5733 50.5933 67.6203C44.0433 67.6203 37.6283 67.6203 30.9613 67.6202ZM38.2698 66.3647C42.2129 66.364 46.1561 66.3596 50.0992 66.3661C50.8319 66.3673 51.5211 66.2448 51.5603 65.3678C51.6048 64.3699 50.8407 64.2837 50.0792 64.2834C49.9114 64.2834 49.7436 64.2826 49.5758 64.2826C37.1172 64.2823 24.6587 64.2817 12.2001 64.2834C11.8232 64.2834 11.3854 64.191 11.0851 64.349C10.7287 64.5365 10.2301 64.9809 10.264 65.2561C10.3114 65.642 10.7306 66.0893 11.1081 66.295C11.4359 66.4736 11.9268 66.3631 12.3456 66.3632C20.903 66.3652 29.4604 66.3647 38.2698 66.3647Z" fill="white"/>
<path d="M43.3611 34.8098C44.6301 35.4122 45.1937 36.496 45.3155 37.8206C45.5256 40.1049 44.8833 42.1512 43.3476 43.8576C41.5722 45.8304 39.4074 45.5471 37.0417 44.728C36.8189 44.6838 36.7483 44.6958 36.6777 44.7078C36.7124 44.8044 36.7471 44.901 36.7819 44.9976C36.6911 45.5168 36.7252 46.1034 36.4877 46.5434C35.4948 48.3831 34.4363 50.1882 33.3716 51.9881C32.1822 53.999 29.6771 54.0367 28.4812 52.0469C27.3826 50.219 26.3272 48.3641 25.3 46.4951C25.0495 46.0393 24.9842 45.4817 24.7628 44.7303C21.867 45.8975 19.1505 45.6643 17.5084 42.5065C16.4225 40.4182 15.8047 38.2098 17.3107 35.8762C17.5451 35.6554 17.6388 35.508 17.7325 35.3605C17.7325 35.3605 17.7665 35.2928 17.8916 35.2779C18.3393 35.0393 18.662 34.8158 19.053 34.5505C19.2776 34.5092 19.4341 34.5096 19.7201 34.5277C27.3403 34.5356 34.831 34.5259 42.3818 34.4955C42.5207 34.5017 42.5994 34.5286 42.7138 34.614C42.9534 34.7183 43.1572 34.7641 43.3611 34.8098ZM27.3188 46.5264C28.2037 47.3196 29.0886 48.1128 29.9984 48.9284C30.9861 46.7211 29.5754 45.313 28.4335 43.8311C28.5951 43.704 28.7567 43.5768 28.9184 43.4497C29.5787 43.8956 30.239 44.3416 30.89 44.7814C31.5284 44.3587 32.1819 43.9261 32.8354 43.4934C32.9848 43.6165 33.1341 43.7395 33.2835 43.8625C32.269 45.3607 30.8395 46.7546 31.8639 48.8932C32.9956 47.8746 34.1207 46.8976 35.1877 45.8607C35.3376 45.7151 35.3047 45.2273 35.1848 44.9816C33.597 41.7241 33.0386 41.3971 29.4458 41.6232C29.1091 41.6444 28.6453 41.7781 28.4798 42.022C27.7113 43.1545 27.0272 44.3442 26.2233 45.66C26.5899 45.9459 26.887 46.1777 27.3188 46.5264ZM30.9682 36.7922C30.5364 36.9973 29.8412 37.1055 29.7232 37.4261C29.3977 38.3103 29.3138 39.2833 29.1237 40.2769C30.3393 40.2769 31.5152 40.2769 32.7202 40.2769C32.4941 39.2376 32.3429 38.2858 32.0541 37.3778C31.9713 37.1176 31.4906 36.984 30.9682 36.7922ZM29.7295 50.0702C29.3847 49.9003 29.0399 49.7304 28.695 49.5605C29.3746 50.6156 29.3156 52.3311 31.1098 52.2301C31.956 52.1825 32.908 50.8389 33.0719 49.8295C32.0816 49.9233 31.0026 50.0254 29.7295 50.0702ZM33.6869 37.3498C33.764 38.0071 33.8411 38.6644 33.9329 39.4465C34.875 37.9898 35.666 36.7666 36.4397 35.5702C34.7116 35.2299 34.4286 35.39 33.6869 37.3498ZM25.2378 35.7862C26.0923 36.9034 26.9467 38.0206 27.8661 39.2228C28.2003 38.1316 28.3042 37.0179 27.5256 35.997C26.8957 35.171 26.0379 35.3055 25.2378 35.7862ZM32.014 35.9514C32.0593 35.7638 32.1046 35.5763 32.1498 35.3887C31.2525 35.3887 30.3552 35.3887 29.4579 35.3887C29.4602 35.596 29.4626 35.8033 29.465 36.0106C30.2467 36.0106 31.0284 36.0106 32.014 35.9514Z" fill="white"/>
<path d="M99.4073 55.2309C99.4073 57.4481 99.4073 59.5394 99.4073 61.7056C98.453 61.7056 97.6017 61.7056 96.6753 61.7056C96.6753 54.3957 96.6753 47.1505 96.6753 39.7109C98.0398 39.7109 99.4114 39.6595 100.772 39.7569C101.026 39.7751 101.37 40.3627 101.448 40.7345C102.358 45.0845 103.225 49.4437 104.106 53.7999C104.186 54.1931 104.284 54.5825 104.645 54.9669C105.199 52.2097 105.753 49.4524 106.309 46.6955C106.715 44.6813 107.157 42.6735 107.514 40.6507C107.643 39.922 107.94 39.6593 108.671 39.6897C109.834 39.7381 111 39.7026 112.193 39.7026C112.193 47.1214 112.193 54.3681 112.193 61.6982C111.315 61.6982 110.498 61.6982 109.547 61.6982C109.547 56.6289 109.547 51.57 109.547 46.511C109.445 46.4978 109.343 46.4845 109.242 46.4712C108.688 48.977 108.133 51.4826 107.58 53.9886C107.092 56.1984 106.506 58.393 106.158 60.6245C105.935 62.0526 105.017 61.7117 104.146 61.797C103.239 61.8857 102.946 61.5291 102.765 60.6521C101.889 56.4249 100.925 52.2161 99.9885 48.0015C99.8743 47.487 99.7418 46.9765 99.4073 46.5029C99.4073 49.3702 99.4073 52.2375 99.4073 55.2309Z" fill="white"/>
<path d="M87.3876 39.7037C90.4415 39.703 90.4123 39.7079 90.8965 42.5901C91.903 48.5811 92.9455 54.5661 93.9657 60.5549C94.0265 60.9119 94.0201 61.2804 94.0544 61.7818C93.3413 61.7818 92.7186 61.7342 92.1063 61.7936C91.3065 61.8713 90.9855 61.5461 90.8882 60.7649C90.718 59.3979 90.4599 58.0419 90.2167 56.5471C89.0713 56.5471 87.9894 56.4945 86.9197 56.5854C86.6635 56.6072 86.3023 57.0772 86.2385 57.3915C85.9484 58.8221 85.7473 60.2707 85.514 61.714C84.5172 61.714 83.6111 61.714 82.5364 61.714C82.9303 59.364 83.3046 57.1049 83.6882 54.8474C84.4883 50.139 85.3121 45.4345 86.0776 40.7205C86.2042 39.9407 86.4795 39.5776 87.3876 39.7037ZM89.6905 53.1561C89.2596 50.4668 88.8288 47.7775 88.3979 45.0883C88.3111 45.1022 88.2244 45.1162 88.1376 45.1301C87.675 48.0281 87.2124 50.9261 86.7295 53.9509C87.668 53.9509 88.4174 53.9922 89.1567 53.9241C89.362 53.9052 89.5375 53.5621 89.6905 53.1561Z" fill="white"/>
<path d="M125.469 56.5348C125.749 58.293 126.013 59.9422 126.293 61.6931C125.287 61.6931 124.385 61.6931 123.313 61.6931C123.094 60.4592 122.804 59.163 122.653 57.8508C122.543 56.8984 122.245 56.4836 121.18 56.5143C118.618 56.588 118.617 56.5289 118.158 59.0744C118.136 59.1979 118.09 59.3171 118.068 59.4407C117.612 62.0524 117.612 62.0525 114.744 61.6376C115.004 60.0456 115.255 58.4518 115.525 56.8612C116.443 51.4543 117.38 46.0506 118.274 40.6397C118.383 39.9807 118.597 39.7222 119.291 39.6885C122.531 39.531 122.526 39.5112 123.073 42.6841C123.863 47.2653 124.659 51.8453 125.469 56.5348ZM119.558 49.8204C119.361 51.1643 119.165 52.5081 118.964 53.8833C120.061 53.8833 121.009 53.8833 122.041 53.8833C121.548 50.9675 121.069 48.1352 120.59 45.3029C120.483 45.3131 120.376 45.3234 120.27 45.3336C120.044 46.7561 119.818 48.1786 119.558 49.8204Z" fill="white"/>
<path d="M17.8919 34.346C17.8067 34.1433 17.7216 33.9406 17.7388 33.6023C17.8771 33.2947 17.913 33.1227 17.9489 32.9506C17.947 32.9087 17.9262 32.8516 17.946 32.827C19.3565 31.0738 18.6601 29.6455 17.5987 27.9198C15.2072 24.0315 16.7599 19.632 20.3741 16.8284C21.0739 16.2856 21.4764 16.5951 21.6995 17.5525C22.0773 19.1728 22.4736 20.7977 23.019 22.3661C23.2539 23.0417 23.8353 23.6228 24.3407 24.1719C25.0142 24.9039 25.7864 25.2315 26.7841 24.6252C27.1862 24.3808 27.7438 24.3488 28.238 24.3073C30.4981 24.1176 32.032 22.0711 31.5856 19.8042C31.3434 18.574 31.5925 18.3347 32.8115 18.7072C35.0915 19.4038 36.3432 21 36.7405 23.3107C36.8025 23.6714 36.8244 24.039 36.8772 24.5156C38.2103 23.8226 38.8223 22.6672 39.2355 21.4646C39.6677 20.2064 39.8808 18.8708 40.1587 17.5624C40.3971 16.4394 40.7673 16.2503 41.6466 16.9765C45.0108 19.7551 46.8507 24.1987 43.8564 28.5617C42.9207 29.9251 42.5872 30.9632 43.6671 32.2826C43.8668 32.5265 43.9064 32.9015 43.9921 33.4422C43.9708 33.8503 43.9772 34.0322 43.9835 34.2141C43.9835 34.2141 43.9984 34.275 43.8963 34.2895C43.5516 34.2225 43.3092 34.1412 43.0251 33.973C42.6907 33.2831 42.4406 32.6543 42.097 32.0816C41.04 30.3198 41.0261 30.3281 42.2312 28.702C44.3648 25.823 44.6236 23.1946 43.0039 20.584C42.7573 20.1749 42.5288 19.8533 42.3002 19.5317C42.2321 19.5608 42.164 19.5899 42.0959 19.619C42.1318 19.981 42.1677 20.3431 42.1881 20.8216C42.1703 21.2724 42.1568 21.6069 42.1674 21.9407C42.2288 23.8731 41.913 25.7071 40.5767 27.1943C40.2986 27.5039 39.7498 27.5703 39.3257 27.7488C39.4027 27.3198 39.4188 26.8681 39.5689 26.4664C39.9132 25.5458 40.3229 24.6496 40.7641 23.6612C40.8605 22.8738 40.8989 22.1687 40.9372 21.4636C40.8613 21.4549 40.7853 21.4462 40.7094 21.4375C40.4051 22.1038 40.1009 22.7702 39.7367 23.4918C38.4324 24.733 37.188 25.919 35.9437 27.105C35.7815 27.068 35.6194 27.031 35.4573 26.9939C35.1766 24.622 36.2041 21.7375 33.1326 20.3161C32.9874 20.9178 32.8801 21.4371 32.7362 21.9461C32.1078 24.1693 30.655 25.478 28.5118 25.6031C27.288 25.6746 26.3336 26.0375 25.7088 27.1527C25.3937 27.715 24.945 27.9627 24.4758 27.1735C24.4734 26.9764 24.465 26.8638 24.5034 26.6598C24.4503 26.2989 24.4123 25.9786 24.24 25.7685C23.3837 24.7244 22.492 23.7093 21.5912 22.594C21.412 22.2183 21.2544 21.9325 21.0968 21.6468C21.0015 21.6819 20.9062 21.717 20.8108 21.7521C20.8733 22.0748 20.9358 22.3976 20.9797 22.8231C21.4375 24.1391 21.9296 25.3468 22.3802 26.5697C22.5089 26.9192 22.5174 27.3129 22.5811 27.6863C22.1814 27.5932 21.6013 27.6332 21.4159 27.382C20.8565 26.6237 20.2563 25.8015 20.031 24.9131C19.708 23.6392 19.7022 22.2849 19.5983 20.8802C19.6762 20.3843 19.7169 19.9733 19.7575 19.5622C19.6627 19.5393 19.568 19.5165 19.4732 19.4936C19.2697 19.8752 19.0663 20.2568 18.7971 20.6943C17.6224 22.4963 17.4025 24.3773 18.2373 26.2417C18.7737 27.4396 19.5964 28.5173 20.3538 29.6049C20.7241 30.1366 20.9333 30.5229 20.4704 31.1493C19.8571 31.9792 19.3891 32.9165 18.7825 33.8337C18.4349 34.0218 18.1634 34.1839 17.8919 34.346Z" fill="white"/>
<path d="M118.364 28.5538C118.364 31.1007 118.364 33.6475 118.364 36.2478C117.709 36.2478 117.229 36.2478 116.672 36.2478C116.672 31.6745 116.672 27.1651 116.672 22.5892C117.616 22.5892 118.48 22.5892 119.482 22.5892C120.082 25.4953 120.686 28.4226 121.29 31.3499C121.41 31.3597 121.529 31.3695 121.649 31.3792C121.925 30.0331 122.203 28.6871 122.478 27.3407C122.654 26.4784 122.838 25.6175 123 24.7524C123.453 22.3189 123.658 22.1821 126.259 22.6829C126.259 27.1749 126.259 31.6793 126.259 36.2475C125.681 36.2475 125.193 36.2475 124.519 36.2475C124.519 33.7233 124.519 31.2017 124.519 28.6801C124.372 28.6608 124.225 28.6415 124.078 28.6222C123.504 31.1489 122.93 33.6756 122.363 36.1708C120.545 36.4619 120.549 36.4611 120.199 34.8485C119.756 32.8017 119.305 30.7564 118.85 28.5113C118.703 27.7772 118.563 27.2424 118.423 26.7076C118.371 26.7167 118.32 26.7257 118.268 26.7347C118.3 27.3411 118.332 27.9474 118.364 28.5538Z" fill="white"/>
<path d="M63.7483 41.4144C63.7482 47.2733 63.7482 53.0121 63.7482 58.8739C65.622 58.8739 67.3249 58.8739 69.1003 58.8739C69.1003 59.8594 69.1003 60.7219 69.1003 61.6864C66.3149 61.6864 63.5358 61.6864 60.6713 61.6864C60.6713 54.4214 60.6713 47.1781 60.6713 39.8143C61.6346 39.8143 62.6056 39.8143 63.7483 39.8143C63.7483 40.3208 63.7483 40.8075 63.7483 41.4144Z" fill="white"/>
<path d="M74.9536 50.1907C74.9536 52.4149 74.9536 54.513 74.9536 56.6112C74.9536 58.9047 74.9537 58.9047 77.3111 58.9047C78.2655 58.9046 79.2199 58.9047 80.2284 58.9047C80.2284 59.8952 80.2284 60.7597 80.2284 61.7028C77.4455 61.7028 74.7063 61.7028 71.8994 61.7028C71.8994 54.3907 71.8994 47.1489 71.8994 39.8059C72.9126 39.8059 73.8871 39.8059 74.9536 39.8059C74.9536 43.2761 74.9536 46.6704 74.9536 50.1907Z" fill="white"/>
<path d="M60.6724 25.9998C60.6724 24.7952 60.6724 23.7159 60.6724 22.6221C62.2425 22.6221 63.6568 22.5702 65.0651 22.6399C66.036 22.688 66.8087 23.2678 66.9153 24.2375C67.0902 25.8303 67.4572 27.4957 66.3004 28.9174C67.7948 30.7829 67.413 32.8846 67.0657 34.9333C66.8782 36.0393 65.84 36.2475 64.9023 36.2937C63.5666 36.3594 62.2252 36.3104 60.6724 36.3104C60.6724 32.877 60.6724 29.5011 60.6724 25.9998ZM63.9331 29.9317C63.5251 29.9317 63.1172 29.9317 62.6584 29.9317C62.6584 31.5315 62.6584 33.0077 62.6584 34.4712C65.0126 34.7474 65.2309 34.5576 65.2317 32.3264C65.2318 31.9498 65.2249 31.573 65.2316 31.1966C65.2448 30.4648 64.9735 29.9812 63.9331 29.9317ZM62.6211 28.0313C63.39 27.9808 64.73 28.1224 64.8234 27.8448C65.1351 26.9178 65.2414 25.7567 64.929 24.8584C64.7852 24.4449 63.486 24.4332 62.7269 24.2433C62.6191 24.6435 62.5802 24.7215 62.5798 24.7997C62.5742 25.8002 62.5741 26.8007 62.6211 28.0313Z" fill="white"/>
<path d="M91.9616 31.289C91.9616 28.3237 91.9616 25.4843 91.9616 22.6364C93.596 22.6364 95.078 22.4799 96.4993 22.7057C97.1604 22.8108 98.092 23.5724 98.2268 24.1848C98.6167 25.9554 98.9088 27.8329 97.6433 29.391C99.215 31.5663 98.083 33.9641 98.5435 36.2612C97.7991 36.2612 97.2633 36.2612 96.5558 36.2612C96.5558 35.0038 96.5558 33.7644 96.5557 32.5249C96.5555 30.3556 96.3879 30.2124 93.9382 30.4855C93.9382 31.4044 93.9382 32.3501 93.9382 33.2959C93.9382 34.2524 93.9382 35.2089 93.9382 36.2354C93.2343 36.2354 92.6697 36.2354 91.9615 36.2354C91.9615 34.5868 91.9615 33.0009 91.9616 31.289ZM96.5694 27.4955C96.5699 27.1616 96.5712 26.8278 96.571 26.4939C96.5696 24.4022 96.131 24.0748 93.9972 24.5838C93.9972 25.9377 93.9972 27.2928 93.9972 28.6988C95.0331 28.6494 96.1631 29.1539 96.5694 27.4955Z" fill="white"/>
<path d="M87.0607 29.9415C86.5249 29.9414 86.1125 29.9414 85.5551 29.9414C85.5551 32.0833 85.5551 34.1166 85.5551 36.2299C84.8498 36.2299 84.2898 36.2299 83.6444 36.2299C83.6444 31.6835 83.6444 27.1761 83.6444 22.595C84.2391 22.595 84.767 22.595 85.4852 22.595C85.4852 24.3847 85.4852 26.1994 85.4852 28.0679C86.45 28.0679 87.2281 28.0679 88.1625 28.0679C88.1625 26.2445 88.1625 24.4658 88.1625 22.6063C88.88 22.6063 89.4423 22.6063 90.0899 22.6063C90.0899 27.1582 90.0899 31.6668 90.0899 36.2444C89.4598 36.2444 88.8931 36.2444 88.1771 36.2444C88.1771 34.4259 88.1446 32.6716 88.192 30.9193C88.2131 30.1437 87.9538 29.8216 87.0607 29.9415Z" fill="white"/>
<path d="M104.694 36.2258C101.268 36.6343 100.124 35.6185 100.124 32.2934C100.124 30.1575 100.108 28.0213 100.129 25.8856C100.152 23.6673 101.316 22.4822 103.42 22.4832C105.493 22.4841 106.642 23.6944 106.658 25.9371C106.674 28.3662 106.668 30.7954 106.658 33.2245C106.653 34.5927 106.168 35.6753 104.694 36.2258ZM104.716 26.1995C104.736 25.2414 104.6 24.3651 103.364 24.3799C102.179 24.3941 102.112 25.2749 102.11 26.1596C102.108 28.3829 102.119 30.6062 102.105 32.8293C102.099 33.781 102.336 34.5556 103.459 34.5209C104.486 34.4892 104.731 33.7639 104.722 32.8554C104.702 30.7162 104.716 28.5768 104.716 26.1995Z" fill="white"/>
<path d="M114.74 34.2428C113.955 36.0671 112.771 36.6594 110.75 36.324C109.28 36.08 108.357 34.9227 108.326 33.125C108.284 30.6977 108.277 28.2684 108.325 25.8413C108.368 23.6615 109.524 22.5048 111.547 22.4841C113.617 22.4629 114.753 23.5057 114.806 25.7418C114.873 28.5407 114.786 31.3434 114.74 34.2428ZM110.267 31.6336C110.268 32.0531 110.265 32.4727 110.27 32.8922C110.279 33.7731 110.516 34.5326 111.561 34.5478C112.655 34.5637 112.967 33.8089 112.969 32.8614C112.974 30.5961 112.981 28.3306 112.968 26.0653C112.963 25.1418 112.699 24.3645 111.578 24.3592C110.393 24.3536 110.283 25.2205 110.274 26.104C110.258 27.8658 110.268 29.6279 110.267 31.6336Z" fill="white"/>
<path d="M75.1626 33.5066C75.2995 34.4713 75.4263 35.3277 75.5639 36.2564C74.8894 36.2564 74.3606 36.2564 73.7116 36.2564C73.5891 35.6561 73.3621 35.0535 73.3646 34.4518C73.3702 33.1366 72.6213 32.8894 71.5831 33.1203C71.2463 33.1952 70.915 33.5588 70.7085 33.8738C70.538 34.1338 70.4845 34.5206 70.5015 34.8448C70.5782 36.3008 69.8031 36.5359 68.4211 36.1818C68.6908 34.4479 68.9473 32.6925 69.24 30.9431C69.5923 28.838 69.9664 26.7365 70.3475 24.6365C70.7498 22.4194 70.7582 22.4209 73.2703 22.5884C73.8931 26.1651 74.5228 29.7817 75.1626 33.5066ZM72.8068 31.1765C72.5812 29.6398 72.3555 28.1032 72.1299 26.5665C72.0109 26.5758 71.8919 26.585 71.7729 26.5943C71.5377 28.1549 71.3026 29.7154 71.063 31.3062C71.7163 31.3062 72.173 31.3062 72.8068 31.1765Z" fill="white"/>
<path d="M77.6828 28.2661C77.6828 26.9319 77.6828 25.7236 77.6828 24.431C76.8997 24.431 76.2379 24.431 75.4918 24.431C75.4918 23.782 75.4918 23.2186 75.4918 22.5908C77.6216 22.5908 79.7008 22.5908 81.9249 22.5908C81.95 23.1451 81.9736 23.6661 82.0048 24.354C81.1956 24.3919 80.4696 24.426 79.6129 24.4661C79.6129 28.4069 79.6129 32.2906 79.6129 36.2398C78.9484 36.2398 78.4173 36.2398 77.6828 36.2398C77.6828 33.6467 77.6828 31.0193 77.6828 28.2661Z" fill="white"/>
<path d="M28.5866 14.1703C28.9271 13.8713 29.2417 13.6628 29.5562 13.4543C29.6813 13.7022 29.9665 14.002 29.9057 14.1897C29.4571 15.5747 28.9467 16.9401 28.4302 18.302C28.3872 18.4156 28.1572 18.4582 27.8392 18.626C26.9898 16.9216 28.3541 15.669 28.5866 14.1703Z" fill="white"/>
<path d="M32.4169 17.3898C31.8308 16.8577 31.2435 14.2958 31.6152 13.7915C31.7888 13.5561 32.4567 13.3893 32.6672 13.533C33.2794 13.9511 33.1057 16.837 32.4169 17.3898Z" fill="white"/>
<path d="M26.4077 20.0885C26.7622 19.8182 27.091 19.6344 27.4197 19.4506C27.5044 19.8314 27.7475 20.2634 27.6443 20.5837C27.3272 21.5674 26.8774 22.5083 26.3575 23.7584C25.12 22.2117 26.2303 21.2245 26.4077 20.0885Z" fill="white"/>
<path d="M36.9072 16.7292C36.6262 17.5298 36.1338 17.3762 35.891 16.9196C35.4423 16.0762 35.1114 15.1614 34.8249 14.2471C34.7608 14.0425 35.082 13.7172 35.2259 13.4474C35.4966 13.6086 35.9154 13.7087 36.0118 13.942C36.3747 14.8203 36.6326 15.7421 36.9072 16.7292Z" fill="white"/>
<path d="M23.2783 19.6573C23.6567 18.5477 24.0662 17.5094 24.5355 16.499C24.5586 16.4493 25.2823 16.553 25.3755 16.7383C25.7427 17.4686 24.1864 19.6736 23.2783 19.6573Z" fill="white"/>
<path d="M37.8221 18.2821C38.107 18.9777 38.416 19.5797 38.5588 20.2189C38.6336 20.5536 38.4168 20.9534 38.3317 21.3239C38.019 21.1391 37.5832 21.0279 37.4194 20.7541C37.0838 20.1929 36.8384 19.5593 36.6689 18.9253C36.5885 18.6243 36.7679 18.2539 36.8295 17.9149C37.1454 18.0112 37.4613 18.1076 37.8221 18.2821Z" fill="white"/>
<path d="M37.6924 14.8395C37.6951 14.3193 37.7381 13.8848 37.7811 13.4503C38.1792 13.7463 38.7277 13.9645 38.9325 14.3604C39.13 14.7423 38.9727 15.3076 38.9713 15.7923C38.5584 15.5032 38.1455 15.2142 37.6924 14.8395Z" fill="white"/>
<path d="M26.7374 14.5331C26.3793 14.9628 26.0542 15.3063 25.6978 15.6134C25.675 15.6331 25.2677 15.3536 25.2812 15.243C25.3388 14.7727 25.4131 14.2733 25.6328 13.8665C25.7536 13.6429 26.1756 13.5822 26.4618 13.448C26.5623 13.7782 26.6628 14.1084 26.7374 14.5331Z" fill="white"/>
<path d="M17.9339 34.4415C18.1634 34.184 18.4349 34.0219 18.7708 33.936C18.8851 34.2055 18.935 34.3988 18.9848 34.5921C18.6621 34.8156 18.3394 35.0392 17.9291 35.2724C17.8863 35.0337 17.9311 34.7853 17.9339 34.4415Z" fill="white"/>
<path d="M43.0666 34.0598C43.3091 34.1412 43.5516 34.2226 43.8714 34.3087C43.8196 34.4594 43.6904 34.6054 43.4611 34.7805C43.1572 34.7639 42.9533 34.7181 42.7853 34.57C42.9029 34.3317 42.9847 34.1957 43.0666 34.0598Z" fill="white"/>
<path d="M17.8994 32.9902C17.9127 33.1224 17.8768 33.2942 17.7681 33.5186C17.7469 33.3908 17.7986 33.2103 17.8994 32.9902Z" fill="white"/>
<path d="M44.0465 34.1723C43.977 34.0315 43.9707 33.8499 43.9761 33.5319C44.0284 33.6408 44.0691 33.8862 44.0465 34.1723Z" fill="white"/>
<path d="M17.6639 35.3773C17.6383 35.5077 17.5447 35.655 17.3822 35.8157C17.4074 35.6842 17.5017 35.5392 17.6639 35.3773Z" fill="white"/>
<path d="M19.7202 34.5275C19.9375 34.4144 20.2842 34.2364 20.6312 34.2356C27.5733 34.2197 34.5155 34.2228 41.4576 34.2307C41.6994 34.2309 41.9411 34.3196 42.2523 34.4415C34.8311 34.5257 27.3404 34.5355 19.7202 34.5275Z" fill="white"/>
<path d="M24.4757 27.1729C24.4208 27.0974 24.3718 26.9374 24.3897 26.7644C24.465 26.8638 24.4733 26.9761 24.4757 27.1729Z" fill="#FEF8FD"/>
</g>
<defs>
<clipPath id="clip0_1_61">
<rect width="135" height="84" fill="white"/>
</clipPath>
</defs>
</svg>
